<?xml version="1.0" encoding="utf-8"?>
<!-- Generator: Adobe Illustrator 17.0.0, SVG Export Plug-In . SVG Version: 6.00 Build 0)  -->
<!DOCTYPE svg PUBLIC "-//W3C//DTD SVG 1.1//EN" "http://www.w3.org/Graphics/SVG/1.1/DTD/svg11.dtd">
<svg version="1.1" id="Layer_1" xmlns="http://www.w3.org/2000/svg" xmlns:xlink="http://www.w3.org/1999/xlink" x="0px" y="0px"
	 width="612px" height="271.486px" viewBox="0 0 612 271.486" enable-background="new 0 0 612 271.486" xml:space="preserve">
<g>
	<g>
		<path fill-rule="evenodd" clip-rule="evenodd" fill="#D4812D" d="M372.673,203.433c-32.177,20.951-78.83,32.095-119,32.095
			c-56.303,0-107-18.361-145.368-48.928c-3.011-2.399-0.325-5.679,3.296-3.82c41.393,21.253,92.581,34.052,145.452,34.052
			c35.665,0,74.871-6.53,110.944-20.03C373.438,194.765,377.999,199.966,372.673,203.433z"/>
		<path fill-rule="evenodd" clip-rule="evenodd" fill="#D4812D" d="M386.065,189.947c-4.117-4.651-27.208-2.205-37.581-1.109
			c-3.141,0.332-3.629-2.087-0.796-3.843c18.418-11.415,48.599-8.118,52.106-4.299c3.536,3.856-0.925,30.554-18.188,43.296
			c-2.654,1.96-5.18,0.915-4.003-1.675C381.487,213.76,390.183,194.598,386.065,189.947z"/>
	</g>
	<g>
		<path fill-rule="evenodd" clip-rule="evenodd" d="M349.217,104.359V93.268c0.008-1.688,1.449-2.814,3.186-2.81l56.342-0.005
			c1.802,0.001,3.247,1.158,3.251,2.802l-0.004,9.512c-0.013,1.595-1.536,3.678-4.242,6.983l-29.184,36.765
			c10.834-0.225,22.294,1.205,32.137,6.088c2.22,1.1,2.814,2.732,2.989,4.33v11.833c0,1.632-2.022,3.518-4.147,2.536
			c-17.343-8.015-40.356-8.892-59.532,0.097c-1.96,0.921-4.01-0.938-4.01-2.57v-11.25c0-1.799,0.038-4.879,2.096-7.623
			l33.813-42.799l-29.441-0.005C350.672,107.151,349.229,106.02,349.217,104.359z"/>
		<path fill-rule="evenodd" clip-rule="evenodd" d="M143.692,173.633h-17.14c-1.631-0.094-2.936-1.176-3.067-2.557l0.011-77.62
			c0-1.553,1.481-2.795,3.308-2.795l15.963-0.004c1.671,0.076,3.011,1.191,3.118,2.607v10.134h0.321
			c4.16-9.8,12-14.374,22.559-14.374c10.721,0,17.44,4.573,22.242,14.374c4.158-9.8,13.599-14.374,23.68-14.374
			c7.2,0,15.04,2.613,19.84,8.494c5.44,6.534,4.322,16.007,4.322,24.338l-0.013,48.983c0,1.551-1.481,2.794-3.306,2.794h-17.121
			c-1.72-0.097-3.078-1.3-3.078-2.788l-0.004-41.149c0-3.267,0.321-11.434-0.48-14.538c-1.28-5.226-5.119-6.696-10.079-6.696
			c-4.16,0-8.482,2.45-10.242,6.37c-1.76,3.92-1.599,10.453-1.599,14.864v41.142c0,1.551-1.481,2.794-3.306,2.794H172.5
			c-1.72-0.097-3.078-1.3-3.078-2.788l-0.017-41.149c0-8.657,1.601-21.398-10.559-21.398c-12.321,0-11.841,12.414-11.841,21.398
			l-0.008,41.142C146.999,172.39,145.518,173.633,143.692,173.633z"/>
		<path fill-rule="evenodd" clip-rule="evenodd" d="M460.499,89.025c25.442,0,39.2,19.274,39.2,43.774
			c0,23.684-15.198,42.469-39.2,42.469c-24.961,0-38.562-19.275-38.562-43.285C421.936,107.809,435.697,89.025,460.499,89.025z
			 M460.658,104.869c-12.642,0-13.441,15.19-13.441,24.663c0,9.474-0.159,29.728,13.282,29.728c13.282,0,13.92-16.334,13.92-26.297
			c0-6.533-0.319-14.374-2.56-20.581C469.937,106.993,466.096,104.869,460.658,104.869z"/>
		<path fill-rule="evenodd" clip-rule="evenodd" d="M532.692,173.633h-17.078c-1.716-0.097-3.076-1.3-3.076-2.788l-0.027-77.65
			c0.144-1.419,1.565-2.533,3.292-2.533l15.9-0.004c1.496,0.068,2.73,0.97,3.046,2.175v11.873h0.323
			c4.8-10.617,11.518-15.681,23.359-15.681c7.679,0,15.202,2.45,20.002,9.147c4.481,6.207,4.481,16.661,4.481,24.174v48.841
			c-0.194,1.377-1.591,2.446-3.285,2.446h-17.184c-1.587-0.091-2.867-1.119-3.053-2.446v-42.144c0-8.494,1.12-20.907-10.721-20.907
			c-4.162,0-8.001,2.45-9.919,6.207c-2.4,4.736-2.723,9.474-2.723,14.701v41.796C536,172.39,534.519,173.633,532.692,173.633z"/>
		<path fill-rule="evenodd" clip-rule="evenodd" d="M304.302,136.565c0,5.894,0.159,10.804-3.207,16.042
			c-2.727,4.257-7.056,6.875-11.867,6.875c-6.574,0-10.422-4.421-10.422-10.968c0-12.88,13.096-15.223,25.497-15.223V136.565z
			 M321.582,173.439c-1.135,0.898-2.77,0.958-4.05,0.352c-5.692-4.175-6.712-6.105-9.824-10.078
			c-9.41,8.457-16.075,10.993-28.261,10.993c-14.431,0-25.656-7.857-25.656-23.571c0-12.277,7.536-20.625,18.28-24.718
			c9.3-3.602,22.29-4.256,32.232-5.239v-1.964c0-3.601,0.321-7.858-2.085-10.967c-2.085-2.783-6.093-3.929-9.621-3.929
			c-6.537,0-12.35,2.956-13.777,9.082c-0.296,1.363-1.424,2.71-2.977,2.78l-16.614-1.586c-1.403-0.279-2.962-1.272-2.558-3.161
			c3.818-17.784,22.02-23.157,38.332-23.157c8.338,0,19.242,1.964,25.816,7.53c8.339,6.875,7.536,16.043,7.536,26.028v23.562
			c0,7.087,3.338,10.197,6.471,14.016c1.094,1.375,1.34,3.012-0.057,4.016c-3.501,2.59-9.722,7.358-13.145,10.045L321.582,173.439z"
			/>
		<path fill-rule="evenodd" clip-rule="evenodd" d="M79.595,136.565c0,5.894,0.161,10.804-3.207,16.042
			c-2.725,4.257-7.054,6.875-11.866,6.875c-6.573,0-10.422-4.421-10.422-10.968c0-12.88,13.096-15.223,25.495-15.223V136.565z
			 M96.877,173.439c-1.135,0.898-2.772,0.958-4.05,0.352c-5.694-4.175-6.714-6.105-9.826-10.078
			c-9.408,8.457-16.073,10.993-28.259,10.993c-14.433,0-25.656-7.857-25.656-23.571c0-12.277,7.536-20.625,18.28-24.718
			c9.3-3.602,22.29-4.256,32.23-5.239v-1.964c0-3.601,0.321-7.858-2.083-10.967c-2.085-2.783-6.095-3.929-9.621-3.929
			c-6.538,0-12.352,2.956-13.778,9.082c-0.298,1.363-1.424,2.71-2.979,2.78l-16.612-1.586c-1.403-0.279-2.964-1.272-2.558-3.161
			c3.817-17.784,22.018-23.157,38.331-23.157c8.339,0,19.242,1.964,25.818,7.53c8.338,6.875,7.536,16.043,7.536,26.028v23.562
			c0,7.087,3.336,10.197,6.469,14.016c1.094,1.375,1.341,3.012-0.055,4.016c-3.501,2.59-9.724,7.358-13.145,10.045L96.877,173.439z"
			/>
	</g>
</g>
</svg>
