<?xml version="1.0" encoding="utf-8"?>
<!-- Generator: Adobe Illustrator 17.0.0, SVG Export Plug-In . SVG Version: 6.00 Build 0)  -->
<!DOCTYPE svg PUBLIC "-//W3C//DTD SVG 1.1//EN" "http://www.w3.org/Graphics/SVG/1.1/DTD/svg11.dtd">
<svg version="1.1" id="Capa_1" xmlns="http://www.w3.org/2000/svg" xmlns:xlink="http://www.w3.org/1999/xlink" x="0px" y="0px"
	 width="800px" height="288px" viewBox="0 45.02 800 288" enable-background="new 0 45.02 800 288" xml:space="preserve">
<g>
	<path fill="#D4812D" d="M589.13,241.477c-51.806,33.732-126.919,51.674-191.596,51.674c-90.65,0-172.275-29.562-234.05-78.776
		c-4.848-3.863-0.523-9.144,5.307-6.15c66.645,34.218,149.059,54.825,234.184,54.825c57.422,0,120.545-10.514,178.625-32.249
		C590.362,227.521,597.705,235.894,589.13,241.477z"/>
	<path fill="#D4812D" d="M610.692,219.764c-6.627-7.488-43.806-3.55-60.506-1.786c-5.057,0.534-5.843-3.361-1.281-6.187
		c29.654-18.379,78.246-13.071,83.893-6.921c5.693,6.209-1.489,49.193-29.284,69.709c-4.274,3.156-8.34,1.473-6.444-2.697
		C603.321,258.103,617.322,227.252,610.692,219.764z"/>
</g>
<g>
	<path d="M183.489,154.641l14.655,5.386c-0.984,4.998-2.535,9.171-4.651,12.522c-2.117,3.351-4.743,5.879-7.881,7.585
		c-3.138,1.705-7.131,2.558-11.979,2.558c-5.882,0-10.687-1.04-14.415-3.117s-6.946-5.733-9.653-10.966
		c-2.707-5.232-4.061-11.931-4.061-20.094c0-10.884,2.381-19.249,7.143-25.094c4.762-5.846,11.499-8.769,20.21-8.769
		c6.817,0,12.176,1.676,16.077,5.027c3.9,3.351,6.798,8.498,8.693,15.439l-14.766,3.994c-0.517-2.004-1.058-3.47-1.624-4.398
		c-0.936-1.556-2.08-2.752-3.433-3.591c-1.354-0.837-2.867-1.256-4.541-1.256c-3.79,0-6.694,1.853-8.712,5.559
		c-1.526,2.75-2.289,7.068-2.289,12.955c0,7.292,0.91,12.291,2.732,14.995c1.821,2.705,4.38,4.057,7.678,4.057
		c3.199,0,5.617-1.092,7.254-3.276C181.563,161.972,182.75,158.8,183.489,154.641z"/>
	<path d="M204.161,148.717c0-10.741,2.46-19.104,7.383-25.088c4.922-5.984,11.776-8.976,20.562-8.976
		c9.007,0,15.947,2.94,20.82,8.819c4.873,5.879,7.309,14.115,7.309,24.707c0,7.69-1.065,13.996-3.193,18.917
		c-2.129,4.922-5.205,8.752-9.229,11.49c-4.024,2.737-9.039,4.106-15.042,4.106c-6.104,0-11.155-1.182-15.154-3.545
		c-3.999-2.363-7.241-6.104-9.727-11.221C205.403,162.81,204.161,156.407,204.161,148.717z M220.883,148.807
		c0,6.643,1.015,11.416,3.045,14.317c2.03,2.903,4.792,4.354,8.288,4.354c3.593,0,6.373-1.42,8.342-4.264
		c1.969-2.842,2.953-7.944,2.953-15.304c0-6.194-1.028-10.719-3.082-13.577c-2.055-2.857-4.842-4.286-8.361-4.286
		c-3.372,0-6.079,1.452-8.121,4.354C221.904,137.303,220.883,142.105,220.883,148.807z"/>
	<path d="M269.352,115.774h15.615l20.377,36.401v-36.401h15.762v65.795h-15.762l-20.266-36.126v36.126h-15.726V115.774z"/>
	<path d="M329.301,159.803l15.91-1.212c0.344,3.142,1.045,5.536,2.104,7.181c1.722,2.663,4.184,3.994,7.383,3.994
		c2.387,0,4.227-0.68,5.519-2.042c1.292-1.361,1.938-2.94,1.938-4.735c0-1.706-0.615-3.231-1.846-4.578
		c-1.23-1.346-4.085-2.618-8.564-3.815c-7.334-2.004-12.563-4.667-15.688-7.989c-3.15-3.321-4.725-7.555-4.725-12.701
		c0-3.381,0.806-6.575,2.418-9.582c1.611-3.007,4.036-5.37,7.272-7.091c3.236-1.72,7.672-2.581,13.308-2.581
		c6.915,0,12.188,1.564,15.818,4.69c3.63,3.127,5.789,8.101,6.479,14.923l-15.763,1.122c-0.418-2.962-1.298-5.116-2.639-6.463
		c-1.342-1.346-3.193-2.02-5.556-2.02c-1.944,0-3.409,0.501-4.393,1.503c-0.984,1.003-1.477,2.222-1.477,3.658
		c0,1.047,0.406,1.99,1.218,2.827c0.788,0.868,2.658,1.676,5.611,2.424c7.309,1.915,12.544,3.853,15.707,5.812
		c3.162,1.96,5.463,4.391,6.903,7.293c1.44,2.903,2.16,6.149,2.16,9.739c0,4.219-0.96,8.109-2.879,11.669
		c-1.919,3.561-4.602,6.261-8.047,8.101c-3.446,1.84-7.789,2.76-13.031,2.76c-9.205,0-15.578-2.154-19.122-6.463
		C331.774,171.92,329.768,166.445,329.301,159.803z"/>
	<path d="M422.03,115.774h16.685v39.2c0,3.887-0.498,7.557-1.494,11.01c-0.997,3.454-2.561,6.474-4.688,9.061
		c-2.129,2.586-4.362,4.402-6.7,5.449c-3.248,1.465-7.149,2.198-11.702,2.198c-2.633,0-5.506-0.225-8.619-0.672
		c-3.114-0.45-5.716-1.338-7.808-2.669c-2.092-1.33-4.005-3.221-5.74-5.673c-1.735-2.452-2.922-4.979-3.562-7.58
		c-1.034-4.186-1.55-7.894-1.55-11.123v-39.2h16.686v40.133c0,3.588,0.817,6.391,2.454,8.408c1.637,2.018,3.907,3.027,6.812,3.027
		c2.879,0,5.137-0.994,6.773-2.982s2.455-4.806,2.455-8.453V115.774z"/>
	<path d="M449.789,115.774h16.723v49.593h26.099v16.202h-42.821V115.774z"/>
	<path d="M492.573,115.774h50.831v16.247H526.35v49.548h-16.723v-49.548h-17.054V115.774z"/>
	<path d="M579.111,170.708h-18.985l-2.638,10.861h-17.074l20.34-65.795h18.241l20.335,65.795h-17.512L579.111,170.708z
		 M575.643,156.481l-5.974-23.652l-5.911,23.652H575.643z"/>
	<path d="M604.867,181.57v-65.795h27.87c5.168,0,9.118,0.539,11.85,1.616s4.934,3.074,6.607,5.992
		c1.674,2.917,2.511,6.47,2.511,10.659c0,3.651-0.641,6.799-1.921,9.447s-3.041,4.795-5.281,6.44
		c-1.429,1.048-3.386,1.915-5.873,2.603c1.991,0.81,3.442,1.618,4.353,2.426c0.615,0.539,1.506,1.692,2.675,3.459
		c1.168,1.767,1.949,3.129,2.343,4.087l8.098,19.065h-18.895l-8.938-20.106c-1.133-2.604-2.142-4.293-3.027-5.072
		c-1.206-1.017-2.572-1.526-4.098-1.526h-1.477v26.704H604.867z M621.663,142.434h7.051c0.763,0,2.239-0.299,4.43-0.897
		c1.107-0.27,2.012-0.958,2.713-2.064c0.702-1.107,1.053-2.379,1.053-3.815c0-2.124-0.554-3.755-1.661-4.892
		c-1.107-1.137-3.188-1.706-6.239-1.706h-7.346V142.434z"/>
</g>
</svg>
