<?xml version="1.0" encoding="utf-8"?>
<!-- Generator: Adobe Illustrator 17.0.0, SVG Export Plug-In . SVG Version: 6.00 Build 0)  -->
<!DOCTYPE svg PUBLIC "-//W3C//DTD SVG 1.1//EN" "http://www.w3.org/Graphics/SVG/1.1/DTD/svg11.dtd">
<svg version="1.1" id="Capa_1" xmlns="http://www.w3.org/2000/svg" xmlns:xlink="http://www.w3.org/1999/xlink" x="0px" y="0px"
	 width="800px" height="405.04px" viewBox="0 0 800 405.04" enable-background="new 0 0 800 405.04" xml:space="preserve">
<g>
	<g>
		<path fill="#D4812D" d="M585.603,289.727c-51.806,33.732-126.919,51.674-191.596,51.674c-90.65,0-172.275-29.562-234.05-78.776
			c-4.848-3.863-0.523-9.144,5.307-6.15c66.645,34.218,149.059,54.825,234.184,54.825c57.422,0,120.545-10.514,178.625-32.249
			C586.835,275.771,594.178,284.144,585.603,289.727z"/>
		<path fill="#D4812D" d="M607.165,268.014c-6.627-7.488-43.806-3.55-60.506-1.786c-5.057,0.534-5.843-3.361-1.281-6.187
			c29.654-18.379,78.246-13.071,83.893-6.921c5.693,6.209-1.489,49.193-29.284,69.709c-4.274,3.156-8.34,1.473-6.444-2.697
			C599.794,306.353,613.795,275.502,607.165,268.014z"/>
	</g>
	<g>
		<path d="M145.617,64.665h18.606v60.082h-18.606V64.665z"/>
		<path d="M177.666,64.665h17.336l22.623,33.24v-33.24h17.5v60.082h-17.5l-22.5-32.989v32.989h-17.459V64.665z"/>
		<path d="M277.665,102.984v-12.5h28.688v25.615c-5.492,3.744-10.348,6.291-14.57,7.644c-4.221,1.352-9.228,2.028-15.02,2.028
			c-7.131,0-12.944-1.215-17.438-3.647c-4.495-2.431-7.979-6.051-10.451-10.86c-2.473-4.809-3.709-10.328-3.709-16.557
			c0-6.558,1.353-12.261,4.057-17.111c2.705-4.85,6.667-8.531,11.885-11.045c4.071-1.939,9.549-2.91,16.434-2.91
			c6.64,0,11.605,0.601,14.897,1.803c3.292,1.203,6.025,3.067,8.197,5.594s3.805,5.731,4.897,9.61l-17.91,3.197
			c-0.738-2.268-1.988-4.002-3.75-5.205c-1.762-1.202-4.01-1.803-6.742-1.803c-4.071,0-7.315,1.414-9.733,4.242
			s-3.627,7.302-3.627,13.422c0,6.503,1.222,11.147,3.668,13.934c2.445,2.787,5.854,4.181,10.225,4.181
			c2.076,0,4.058-0.3,5.943-0.902c1.885-0.601,4.043-1.625,6.475-3.074v-5.656L277.665,102.984L277.665,102.984z"/>
		<path d="M317.624,124.746V64.664h30.942c5.737,0,10.123,0.492,13.155,1.476c3.033,0.983,5.478,2.807,7.336,5.471
			c1.857,2.664,2.787,5.909,2.787,9.733c0,3.334-0.711,6.209-2.132,8.627c-1.422,2.418-3.376,4.379-5.864,5.881
			c-1.585,0.957-3.759,1.749-6.521,2.377c2.211,0.739,3.823,1.477,4.833,2.215c0.683,0.493,1.672,1.545,2.969,3.159
			c1.297,1.614,2.164,2.858,2.601,3.732l8.991,17.41h-20.978l-9.924-18.36c-1.257-2.377-2.377-3.92-3.36-4.631
			c-1.339-0.928-2.855-1.394-4.549-1.394h-1.639v24.385L317.624,124.746L317.624,124.746z M336.271,89.009h7.828
			c0.847,0,2.486-0.273,4.918-0.82c1.229-0.246,2.233-0.874,3.012-1.885c0.779-1.01,1.168-2.172,1.168-3.483
			c0-1.94-0.615-3.429-1.844-4.467c-1.229-1.038-3.539-1.558-6.926-1.558h-8.155v12.213H336.271z"/>
		<path d="M382.623,64.665h49.755v12.828H401.23v9.549h28.895v12.254H401.23v11.844h32.049v13.606h-50.655V64.665H382.623z"/>
		<path d="M440.041,104.868l17.663-1.106c0.383,2.869,1.161,5.055,2.336,6.557c1.913,2.432,4.646,3.647,8.197,3.647
			c2.649,0,4.692-0.621,6.127-1.865c1.435-1.243,2.151-2.684,2.151-4.324c0-1.557-0.683-2.951-2.049-4.18s-4.536-2.391-9.508-3.483
			c-8.143-1.83-13.949-4.262-17.418-7.295c-3.498-3.033-5.246-6.899-5.246-11.599c0-3.087,0.895-6.004,2.685-8.75
			c1.789-2.746,4.48-4.904,8.073-6.475s8.518-2.356,14.774-2.356c7.678,0,13.531,1.428,17.562,4.283
			c4.03,2.855,6.428,7.397,7.192,13.627l-17.5,1.024c-0.465-2.705-1.441-4.672-2.93-5.901c-1.49-1.229-3.545-1.844-6.168-1.844
			c-2.159,0-3.785,0.458-4.877,1.373c-1.094,0.916-1.64,2.029-1.64,3.34c0,0.957,0.451,1.817,1.353,2.582
			c0.874,0.792,2.95,1.53,6.229,2.213c8.114,1.749,13.927,3.518,17.438,5.308c3.51,1.79,6.065,4.01,7.664,6.66
			c1.598,2.65,2.397,5.615,2.397,8.894c0,3.852-1.066,7.404-3.197,10.655c-2.131,3.252-5.109,5.717-8.935,7.397
			c-3.825,1.681-8.647,2.521-14.467,2.521c-10.219,0-17.295-1.967-21.229-5.901S440.56,110.935,440.041,104.868z"/>
		<path d="M540.83,114.828h-21.077l-2.929,9.918h-18.956l22.582-60.082h20.251l22.576,60.082h-19.441L540.83,114.828z
			 M536.979,101.836l-6.631-21.598l-6.563,21.598H536.979z"/>
		<path d="M569.426,124.746V64.664h30.942c5.737,0,10.123,0.492,13.155,1.476c3.033,0.983,5.478,2.807,7.336,5.471
			s2.787,5.909,2.787,9.733c0,3.334-0.711,6.209-2.133,8.627c-1.421,2.418-3.376,4.379-5.863,5.881
			c-1.586,0.957-3.759,1.749-6.521,2.377c2.211,0.739,3.822,1.477,4.833,2.215c0.683,0.493,1.672,1.545,2.97,3.159
			c1.297,1.614,2.163,2.858,2.601,3.732l8.99,17.41h-20.978l-9.924-18.36c-1.257-2.377-2.377-3.92-3.36-4.631
			c-1.339-0.928-2.855-1.394-4.55-1.394h-1.639v24.385L569.426,124.746L569.426,124.746z M588.073,89.009h7.827
			c0.847,0,2.486-0.273,4.918-0.82c1.229-0.246,2.234-0.874,3.013-1.885c0.778-1.01,1.168-2.172,1.168-3.483
			c0-1.94-0.614-3.429-1.844-4.467c-1.229-1.038-3.539-1.558-6.927-1.558h-8.155L588.073,89.009L588.073,89.009z"/>
		<path d="M144.797,165.385h30.86c6.721,0,11.755,1.598,15.103,4.795c3.347,3.197,5.021,7.746,5.021,13.647
			c0,6.065-1.824,10.806-5.471,14.221c-3.647,3.416-9.215,5.123-16.701,5.123h-10.164v22.295h-18.647L144.797,165.385
			L144.797,165.385z M163.444,191h4.549c3.579,0,6.092-0.621,7.541-1.865c1.448-1.243,2.172-2.834,2.172-4.775
			c0-1.885-0.629-3.483-1.885-4.795c-1.257-1.312-3.621-1.967-7.09-1.967h-5.287V191z"/>
		<path d="M205.739,225.467v-60.082h30.942c5.737,0,10.123,0.492,13.155,1.476c3.033,0.983,5.478,2.807,7.336,5.471
			c1.857,2.664,2.787,5.909,2.787,9.733c0,3.334-0.711,6.209-2.132,8.627c-1.422,2.418-3.376,4.379-5.864,5.881
			c-1.585,0.957-3.759,1.749-6.521,2.377c2.211,0.739,3.823,1.478,4.833,2.215c0.683,0.493,1.672,1.546,2.969,3.159
			c1.297,1.614,2.164,2.858,2.601,3.732l8.991,17.41h-20.978l-9.924-18.36c-1.257-2.377-2.377-3.921-3.36-4.632
			c-1.339-0.928-2.855-1.394-4.549-1.394h-1.639v24.386L205.739,225.467L205.739,225.467z M224.387,189.729h7.828
			c0.847,0,2.486-0.273,4.918-0.82c1.229-0.246,2.233-0.874,3.012-1.885c0.779-1.01,1.168-2.172,1.168-3.483
			c0-1.94-0.615-3.429-1.844-4.467c-1.229-1.038-3.539-1.558-6.926-1.558h-8.155v12.213H224.387z"/>
		<path d="M267.009,195.467c0-9.808,2.732-17.444,8.197-22.91c5.464-5.464,13.073-8.196,22.828-8.196
			c10,0,17.705,2.684,23.114,8.053c5.41,5.369,8.115,12.889,8.115,22.561c0,7.022-1.182,12.78-3.545,17.274
			c-2.364,4.495-5.779,7.992-10.246,10.492s-10.035,3.75-16.701,3.75c-6.776,0-12.384-1.079-16.824-3.237s-8.04-5.574-10.799-10.246
			C268.389,208.336,267.009,202.489,267.009,195.467z M285.575,195.549c0,6.065,1.127,10.424,3.381,13.073
			c2.254,2.65,5.321,3.976,9.201,3.976c3.989,0,7.076-1.297,9.262-3.894c2.186-2.595,3.278-7.254,3.278-13.975
			c0-5.656-1.141-9.788-3.422-12.397c-2.282-2.609-5.376-3.914-9.283-3.914c-3.744,0-6.749,1.326-9.017,3.976
			C286.708,185.044,285.575,189.428,285.575,195.549z"/>
		<path d="M339.509,165.385h27.582c5.437,0,9.829,0.738,13.176,2.213c3.347,1.476,6.113,3.593,8.299,6.353s3.771,5.97,4.754,9.631
			c0.983,3.662,1.475,7.541,1.475,11.639c0,6.421-0.731,11.4-2.192,14.938c-1.462,3.539-3.491,6.503-6.086,8.894
			c-2.596,2.391-5.383,3.982-8.361,4.774c-4.071,1.093-7.76,1.64-11.065,1.64h-27.582L339.509,165.385L339.509,165.385z
			 M358.074,178.992v32.828h4.549c3.879,0,6.64-0.431,8.279-1.291s2.923-2.363,3.853-4.509c0.928-2.145,1.393-5.621,1.393-10.43
			c0-6.366-1.039-10.724-3.114-13.074c-2.077-2.349-5.52-3.524-10.328-3.524L358.074,178.992L358.074,178.992z"/>
		<path d="M443.647,165.385h18.524v35.795c0,3.55-0.553,6.901-1.659,10.055s-2.842,5.911-5.205,8.273
			c-2.363,2.361-4.843,4.021-7.438,4.976c-3.606,1.338-7.938,2.007-12.991,2.007c-2.925,0-6.114-0.205-9.57-0.614
			c-3.456-0.41-6.346-1.222-8.668-2.438c-2.322-1.215-4.446-2.941-6.373-5.181c-1.926-2.238-3.244-4.546-3.954-6.921
			c-1.147-3.822-1.722-7.208-1.722-10.157v-35.795h18.524v36.648c0,3.276,0.908,5.836,2.726,7.678
			c1.816,1.843,4.337,2.764,7.562,2.764c3.196,0,5.703-0.907,7.521-2.723c1.816-1.815,2.725-4.389,2.725-7.719v-36.648H443.647z"/>
		<path d="M514.467,200.877l16.271,4.918c-1.094,4.563-2.814,8.374-5.164,11.434c-2.351,3.061-5.267,5.369-8.75,6.927
			s-7.917,2.336-13.299,2.336c-6.531,0-11.865-0.949-16.005-2.847c-4.139-1.897-7.711-5.234-10.717-10.014
			c-3.006-4.778-4.508-10.894-4.508-18.349c0-9.938,2.644-17.576,7.93-22.915c5.287-5.338,12.767-8.007,22.438-8.007
			c7.568,0,13.518,1.53,17.849,4.59c4.33,3.061,7.547,7.76,9.651,14.099l-16.394,3.647c-0.573-1.831-1.175-3.169-1.803-4.017
			c-1.039-1.42-2.31-2.513-3.812-3.279c-1.503-0.764-3.184-1.147-5.041-1.147c-4.208,0-7.433,1.692-9.672,5.076
			c-1.694,2.511-2.541,6.455-2.541,11.829c0,6.659,1.011,11.224,3.032,13.693s4.863,3.704,8.524,3.704
			c3.552,0,6.236-0.997,8.054-2.991C512.328,207.571,513.646,204.674,514.467,200.877z"/>
		<path d="M535.532,165.385h56.435v14.836h-18.935v45.246h-18.565v-45.246h-18.935V165.385z"/>
		<path d="M595.163,195.467c0-9.808,2.731-17.444,8.196-22.91c5.465-5.464,13.074-8.196,22.828-8.196
			c10,0,17.705,2.684,23.114,8.053c5.41,5.369,8.115,12.889,8.115,22.561c0,7.022-1.183,12.78-3.546,17.274
			c-2.363,4.495-5.778,7.992-10.245,10.492c-4.468,2.5-10.035,3.75-16.701,3.75c-6.776,0-12.384-1.079-16.823-3.237
			c-4.44-2.158-8.04-5.574-10.799-10.246C596.542,208.336,595.163,202.489,595.163,195.467z M613.729,195.549
			c0,6.065,1.127,10.424,3.381,13.073c2.254,2.65,5.321,3.976,9.201,3.976c3.988,0,7.076-1.297,9.262-3.894
			c2.186-2.595,3.279-7.254,3.279-13.975c0-5.656-1.142-9.788-3.423-12.397c-2.281-2.609-5.375-3.914-9.282-3.914
			c-3.744,0-6.749,1.326-9.017,3.976C614.862,185.044,613.729,189.428,613.729,195.549z"/>
	</g>
</g>
</svg>
